<svg width="256" height="281" viewBox="0 0 256 281" fill="none" xmlns="http://www.w3.org/2000/svg">
<g filter="url(#filter0_dd)">
<rect x="4" y="8" width="248" height="265" rx="10" fill="#979797"/>
</g>
<path d="M150.206 111.273H140.283L137.919 104.566C137.755 104.107 137.456 103.71 137.062 103.43C136.667 103.15 136.197 103 135.715 103H113.329C112.344 103 111.461 103.628 111.132 104.566L108.761 111.273H98.8374C95.6122 111.273 93 113.917 93 117.182V150.864C93 154.128 95.6122 156.773 98.8374 156.773H150.206C153.432 156.773 156.044 154.128 156.044 150.864V117.182C156.044 113.917 153.432 111.273 150.206 111.273ZM124.522 144.955C118.072 144.955 112.847 139.666 112.847 133.136C112.847 126.607 118.072 121.318 124.522 121.318C130.972 121.318 136.197 126.607 136.197 133.136C136.197 139.666 130.972 144.955 124.522 144.955ZM117.517 133.136C117.517 135.017 118.255 136.821 119.569 138.15C120.882 139.48 122.664 140.227 124.522 140.227C126.38 140.227 128.161 139.48 129.475 138.15C130.789 136.821 131.527 135.017 131.527 133.136C131.527 131.256 130.789 129.452 129.475 128.122C128.161 126.793 126.38 126.045 124.522 126.045C122.664 126.045 120.882 126.793 119.569 128.122C118.255 129.452 117.517 131.256 117.517 133.136Z" fill="white"/>
<defs>
<filter id="filter0_dd" x="0" y="0" width="256" height="281" filterUnits="userSpaceOnUse" color-interpolation-filters="sRGB">
<feFlood flood-opacity="0" result="BackgroundImageFix"/>
<feColorMatrix in="SourceAlpha" type="matrix" values="0 0 0 0 0 0 0 0 0 0 0 0 0 0 0 0 0 0 127 0"/>
<feOffset dy="-4"/>
<feGaussianBlur stdDeviation="2"/>
<feColorMatrix type="matrix" values="0 0 0 0 0 0 0 0 0 0 0 0 0 0 0 0 0 0 0.1 0"/>
<feBlend mode="normal" in2="BackgroundImageFix" result="effect1_dropShadow"/>
<feColorMatrix in="SourceAlpha" type="matrix" values="0 0 0 0 0 0 0 0 0 0 0 0 0 0 0 0 0 0 127 0"/>
<feOffset dy="4"/>
<feGaussianBlur stdDeviation="2"/>
<feColorMatrix type="matrix" values="0 0 0 0 0 0 0 0 0 0 0 0 0 0 0 0 0 0 0.1 0"/>
<feBlend mode="normal" in2="effect1_dropShadow" result="effect2_dropShadow"/>
<feBlend mode="normal" in="SourceGraphic" in2="effect2_dropShadow" result="shape"/>
</filter>
</defs>
</svg>
